<?xml version="1.0" encoding="UTF-8"?>
<!DOCTYPE svg PUBLIC "-//W3C//DTD SVG 1.1//EN" "http://www.w3.org/Graphics/SVG/1.1/DTD/svg11.dtd">
<!-- Creator: CorelDRAW X7 -->
<svg xmlns="http://www.w3.org/2000/svg" xml:space="preserve" width="210mm" height="297mm" version="1.1" style="shape-rendering:geometricPrecision; text-rendering:geometricPrecision; image-rendering:optimizeQuality; fill-rule:evenodd; clip-rule:evenodd"
viewBox="0 0 21000 29700"
 xmlns:xlink="http://www.w3.org/1999/xlink">
 <defs>
  <style type="text/css">
   <![CDATA[
    .fil0 {fill:#0F773D}
    .fil1 {fill:#C7C6C6}
   ]]>
  </style>
 </defs>
 <g id="Слой_x0020_1">
  <metadata id="CorelCorpID_0Corel-Layer"/>
  <g id="_1466366964736">
   <path class="fil0" d="M19688 10038l-3500 0c-967,0 -1750,-784 -1750,-1750l0 -3500 5250 5250z"/>
   <path class="fil1" d="M19688 10038l0 13125c0,966 -784,1749 -1750,1749l-14875 1c-1750,0 -1750,-1750 -1750,-1750l0 -16625c0,-967 783,-1750 1750,-1750l11375 0 0 3500c0,966 783,1750 1750,1750l3500 0z"/>
   <path class="fil0" d="M10810 19534l1312 -1313c79,-81 123,-190 123,-304 0,-241 -196,-437 -437,-437 -114,0 -223,44 -304,123l-566 566 0 -5944c0,-242 -196,-437 -438,-437 -242,0 -437,195 -437,437l0 5944 -566 -566c-82,-79 -191,-123 -304,-123 -242,0 -438,196 -438,438 0,113 44,222 123,304l1313 1312c82,83 193,129 309,129 117,0 228,-46 310,-129l0 0z"/>
   <path class="fil0" d="M9188 20538l-1313 0c-13,1 -26,1 -39,1 -221,0 -400,-179 -400,-400 0,-13 0,-26 2,-39l0 -875c0,-242 -196,-438 -438,-438 -242,0 -437,196 -437,438l0 875c-1,12 -1,25 -1,37 0,705 571,1276 1276,1276 12,0 25,0 37,-1l1313 1c241,-1 437,-196 437,-438 0,-242 -196,-438 -437,-438l0 1z"/>
   <path class="fil0" d="M14000 18788c-242,-1 -437,195 -437,437l0 870c1,14 2,28 2,43 0,221 -180,401 -402,401 -13,0 -25,0 -38,-1l-1312 0c-242,-1 -438,195 -438,437 0,242 196,437 438,437l1312 1c12,0 25,0 37,0 705,0 1276,-571 1276,-1276 0,-12 0,-25 -1,-37l1 -875c0,-242 -196,-438 -438,-438l0 1z"/>
  </g>
 </g>
</svg>
